<svg width="18" height="18" viewBox="0 0 18 18" fill="none" xmlns="http://www.w3.org/2000/svg">
<path fill-rule="evenodd" clip-rule="evenodd" d="M7.56117 7.56097C6.97517 8.14697 6.02617 8.14697 5.44017 7.56097C4.85417 6.97497 4.85417 6.02497 5.44017 5.43997C6.02617 4.85397 6.97517 4.85397 7.56117 5.43997C8.14717 6.02497 8.14717 6.97497 7.56117 7.56097ZM17.4682 7.58197L11.0512 1.16497C10.8862 0.999971 10.6692 0.897971 10.4372 0.876971L1.09317 0.0049712C0.79617 -0.0250288 0.50417 0.0819712 0.29317 0.292971C0.0821703 0.503971 -0.0228297 0.796971 0.00417029 1.09297L0.87617 10.437C0.89917 10.669 1.00017 10.887 1.16517 11.051L7.58217 17.469C7.93717 17.822 8.40217 17.999 8.86717 17.999C9.33217 17.999 9.79717 17.822 10.1522 17.468L17.4682 10.152C17.8112 9.80997 18.0002 9.35297 18.0002 8.86697C18.0002 8.38097 17.8112 7.92497 17.4682 7.58197Z" fill="#FCBF00"/>
</svg>
