<svg width="51" height="60" viewBox="0 0 51 60" fill="none" xmlns="http://www.w3.org/2000/svg">
<path d="M0 41.7456C4.63399 52.4765 15.428 59.9999 28.0049 59.9999C23.3672 49.269 12.5769 41.7493 0 41.7456Z" fill="white"/>
<path d="M28.0048 60.0001C37.243 60.0001 45.1971 54.5869 48.7889 46.803C39.5507 46.803 31.5928 52.2162 28.0048 60.0001Z" fill="white"/>
<path fill-rule="evenodd" clip-rule="evenodd" d="M50.8251 22.5004C50.8251 34.9271 40.6082 45.0009 28.005 45.0009C15.4018 45.0009 5.18494 34.9271 5.18494 22.5004C5.18494 10.0738 15.4018 0 28.005 0C40.6082 0 50.8251 10.0738 50.8251 22.5004ZM39.4133 22.5007C39.4133 28.713 34.3056 33.7491 28.0051 33.7491C21.7045 33.7491 16.5969 28.713 16.5969 22.5007C16.5969 16.2884 21.7045 11.2523 28.0051 11.2523C34.3056 11.2523 39.4133 16.2884 39.4133 22.5007Z" fill="white"/>
</svg>
