<svg width="29" height="33" viewBox="0 0 29 33" fill="none" xmlns="http://www.w3.org/2000/svg">
<path d="M0 22.9602C2.57913 28.8622 8.58673 33.0001 15.5866 33.0001C13.0054 27.0981 6.9999 22.9622 0 22.9602Z" fill="#18A95D"/>
<path d="M15.5865 32.9999C20.7282 32.9999 25.1552 30.0226 27.1543 25.7415C22.0126 25.7415 17.5836 28.7187 15.5865 32.9999Z" fill="#18A95D"/>
<path fill-rule="evenodd" clip-rule="evenodd" d="M28.2876 12.3752C28.2876 19.2099 22.6012 24.7505 15.5866 24.7505C8.57213 24.7505 2.88574 19.2099 2.88574 12.3752C2.88574 5.54059 8.57213 0 15.5866 0C22.6012 0 28.2876 5.54059 28.2876 12.3752ZM21.9361 12.3754C21.9361 15.7922 19.0934 18.562 15.5867 18.562C12.08 18.562 9.23727 15.7922 9.23727 12.3754C9.23727 8.95863 12.08 6.18878 15.5867 6.18878C19.0934 6.18878 21.9361 8.95863 21.9361 12.3754Z" fill="#FCBF00"/>
</svg>
