<svg width="20" height="19" viewBox="0 0 20 19" fill="none" xmlns="http://www.w3.org/2000/svg">
<path fill-rule="evenodd" clip-rule="evenodd" d="M15.5614 18.955C15.4034 18.955 15.2444 18.918 15.0984 18.842L9.99938 16.178L4.90138 18.842C4.56338 19.017 4.15538 18.987 3.84938 18.763C3.54138 18.539 3.38838 18.16 3.45338 17.785L4.42438 12.157L0.304379 8.172C0.0303789 7.907 -0.0686211 7.509 0.0483789 7.145C0.165379 6.783 0.478379 6.518 0.856379 6.464L6.55638 5.636L9.10438 0.51C9.44238 -0.17 10.5574 -0.17 10.8954 0.51L13.4434 5.636L19.1434 6.464C19.5214 6.518 19.8344 6.783 19.9514 7.145C20.0684 7.509 19.9694 7.907 19.6954 8.172L15.5754 12.157L16.5464 17.785C16.6114 18.16 16.4574 18.539 16.1504 18.763C15.9764 18.891 15.7694 18.955 15.5614 18.955Z" fill="#FCBF00"/>
</svg>
